# xmcd
#
# Track frame offsets:
#	150
#	18614
#	57292
#	80656
#	100744
#	124933
#	144205
#	155208
#	173294
#	187278
#	209397
#	224678
#	249798
#	259989
#	276287
#	293783
#	311837
#	330532
#
# Disc length: 4584 seconds
#
# Revision: 0
# Processed by: cddbd v1.5.2PL0 Copyright (c) Steve Scherf et al.
# Submitted via: EZCDAudioConverter 1.3.4.1
#
DISCID=1611e612
DTITLE=Various Artist - Disco Deutschland Disco
DYEAR=2007
DGENRE=
TTITLE0=Su Kramer - You've Got The Power (Part 1)
TTITLE1=Supermax - Lovemachine
TTITLE2=Amanda Lear - Fashion Pack (Studio 54)
TTITLE3=Marianne Rosenberg - Wieder Zusammen
TTITLE4=Alfie Khan Sound Orchestra - Illegal Toys
TTITLE5=Veronika Fischer and Band - Philodendron
TTITLE6=Berry Lipman - Sex World
TTITLE7=Munich Machine - Get On The Funk Train (Part 1)
TTITLE8=Ambros Selos - Gimmi More
TTITLE9=Ganymed - Dancing In A Disco
TTITLE10=James Last - I Can't Move No Mountains
TTITLE11=Silver Convention - Love In A Sleeper
TTITLE12=Christian Anders - Running Away
TTITLE13=Jackie Carter - Treat Me Like A Woman
TTITLE14=Peter Thomas Sound Orchestra - Opium
TTITLE15=Peter Herbolzheimer Rhythm Combination and Brass - Feedback Brother
TTITLE16=Carsten Bohn´S Bandstand - Disco Cisco
TTITLE17=Su Kramer - You've Got The Power (Part 2)
EXTD=
EXTT0=
EXTT1=
EXTT2=
EXTT3=
EXTT4=
EXTT5=
EXTT6=
EXTT7=
EXTT8=
EXTT9=
EXTT10=
EXTT11=
EXTT12=
EXTT13=
EXTT14=
EXTT15=
EXTT16=
EXTT17=
PLAYORDER=
